<?xml version="1.0" encoding="UTF-8"?>
<svg width="150px" height="150px" viewBox="0 0 150 150" version="1.1" xmlns="http://www.w3.org/2000/svg" xmlns:xlink="http://www.w3.org/1999/xlink">
    <!-- Generator: Sketch 52.3 (67297) - http://www.bohemiancoding.com/sketch -->
    <title>logo</title>
    <desc>Created with Sketch.</desc>
    <g id="Page-1" stroke="none" stroke-width="1" fill="none" fill-rule="evenodd">
        <g id="Desktop-HD" transform="translate(-482.000000, -427.000000)">
            <g id="logo" transform="translate(482.000000, 427.000000)">
                <g id="flaticon1543839623-svg" fill="#00C851">
                    <path d="M148.290217,75.1716 C147.128804,73.2546 145.469565,71.9994 142.788587,71.4378 C138.216848,70.4796 135.28913,73.5582 132.707609,76.17 C130.223913,78.6846 126.927174,82.629 123.373913,82.791 L122.919565,82.206 C119.296196,76.3806 126.261413,72.513 131.694022,71.1264 C134.991848,70.2846 142.127174,69.4782 142.921739,64.8564 C143.350543,62.3628 141.7875,58.8258 139.857609,57.9108 C137.416848,56.754 135.055435,58.9584 133.3625,60.2346 C131.050543,61.9758 130.022283,63.063 127.981522,65.1078 C125.426087,67.6674 124.109783,70.2774 120.66087,69.555 C115.83587,68.5434 119.384783,59.568 119.965761,56.1906 C112.403261,47.9688 113.07663,58.149 108.250543,57.5904 C106.631522,54.381 117.908696,34.9062 120.001087,31.7724 C124.035326,25.731 133.286413,16.4472 134.454348,9.6564 C135.073913,6.0546 133.996739,3.9912 132.239674,3.1332 L129.974457,2.658 C128.326087,2.6712 126.502174,3.3306 124.972826,4.4802 C119.678261,8.4624 115.554348,29.448 110.26413,40.4592 C101.066848,59.6052 99.4081522,48.0894 99.9668478,44.838 C100.829891,39.8244 110.423913,25.5492 102.0875,23.802 C95.6717391,22.4568 94.8358696,22.4526 93.5847826,29.7306 C92.7483696,34.593 96.0461957,38.6232 95.3342391,42.7656 C94.1494565,49.6554 85.0630435,56.904 85.6788043,25.4892 C85.7652174,21.0756 89.2059783,1.824 83.136413,0.5514 C80.2293478,-0.0576 78.6608696,3.3666 78.1869565,6.1236 C77.7483696,8.6748 78.7663043,12.4242 79.2304348,14.5974 C80.5157609,20.6178 85.7233696,40.17 80.2880435,44.922 C75.5315217,49.0788 75.2733696,38.3052 74.4222826,34.8768 C73.7706522,32.2482 72.7608696,28.2246 69.686413,28.2984 C62.9684783,28.4604 68.1173913,36.9894 63.7217391,39.78 C59.1353261,42.6918 53.6440217,37.242 53.7586957,29.1156 C53.8440217,23.1048 56.2168478,15.8406 50.2869565,14.5974 C38.7668478,12.183 45.3570652,29.598 47.5369565,34.7178 C49.7331522,39.8742 51.9326087,45.9762 45.9592391,49.0848 C41.4684783,51.4224 34.2266304,42.9396 33.3271739,38.9184 C31.6201087,31.2804 33.6282609,17.715 24.148913,15.7284 C18.3059783,14.5038 14.6483696,33.027 18.213587,41.0202 C24.6342391,55.4166 33.5625,46.3758 40.7244565,54.1884 C42.2190217,55.8198 42.4592391,57.2118 42.0342391,59.685 C41.4679348,62.9784 35.6043478,62.2638 34.6103261,68.043 C33.7559783,73.0092 40.0043478,74.388 39.3163043,78.393 C38.4505435,83.4246 32.2690217,84.0336 28.6994565,84.9738 C15.0331522,88.5738 15.1407609,84.8916 4.16956522,82.5924 C2.74836957,82.2942 0.975543478,84.7488 0.289130435,87.7458 L0.0706521739,89.0178 C-0.326630435,92.4726 0.869565217,96.2214 5.64456522,97.2222 C17.1038043,99.6234 21.4211957,96.4932 30.6434783,91.5258 C33.2119565,90.1428 37.4923913,87.1662 40.288587,86.7642 C48.6190217,85.566 53.3119565,94.1694 43.3646739,95.8356 C37.5891304,96.8028 30.9032609,99.8544 32.7043478,107.8932 C33.1173913,109.7364 33.763587,110.2764 35.7559783,110.694 C40.5478261,111.6984 43.3380435,104.0208 48.2032609,105.0408 C50.7896739,105.5826 52.9853261,109.1448 52.4945652,111.9996 C51.1456522,119.8482 41.8820652,127.7922 45.488587,134.3928 C47.323913,137.7516 51.9211957,138.768 55.1391304,137.3622 C57.1445652,136.4868 60.7277174,130.851 61.2847826,127.611 C61.8103261,124.5558 60.1788043,120.7194 60.4940217,118.5426 C60.8179348,116.3016 64.6271739,113.9916 66.551087,114.3948 C69.8831522,115.0932 68.6978261,118.1496 73.2255435,119.0988 C78.361413,120.1746 78.6097826,111.9648 85.1913043,113.3448 C88.5445652,114.0468 87.7548913,141.6456 86.7076087,145.581 C84.6179348,153.4338 94.0641304,147.8232 93.1663043,143.496 C92.7309783,141.4038 92.2521739,140.4576 91.663587,138.5682 C89.0086957,130.038 93.5478261,128.5806 94.7798913,121.4136 L94.7793478,121.413 C95.4141304,117.7242 93.2972826,110.6376 98.4429348,111.7158 C100.094022,112.0614 102.415217,117.2052 102.995109,118.941 C105.055435,125.1024 103.245109,133.4934 103.563043,139.8072 C104.11087,150.6684 113.411957,149.415 115.400543,137.853 C116.12337,133.6494 115.622283,128.9658 114.563587,125.9832 C112.104891,119.0586 106.35163,116.8746 103.846196,109.0428 C103.432065,107.748 102.585326,105.003 103.009783,103.3506 C103.42663,101.7282 105.742935,100.5786 107.286413,100.902 C111.109239,101.703 119.511413,114.0096 122.743478,107.565 C127.208696,98.6652 108.8875,100.2954 109.828261,94.8246 C110.910326,88.5312 138.3875,93.2226 141.853261,92.3634 C145.869565,91.3668 148.233696,88.7808 149.304348,85.7604 L149.995652,81.7338 C150.018478,79.3518 149.399457,77.0028 148.290217,75.1716 Z" id="Path"></path>
                </g>
                <circle id="Oval" stroke="#00C851" stroke-width="2" fill="#FFFFFF" fill-rule="nonzero" cx="75" cy="75" r="50"></circle>
                <text id="AF" font-family="Raleway-Medium, Raleway" font-size="50" font-weight="400" fill="#343A40">
                    <tspan x="44" y="93">AF</tspan>
                </text>
                <path d="M78.5,50.5 L78.5,99.5" id="Line-2" stroke="#979797" stroke-linecap="square" fill-rule="nonzero"></path>
            </g>
        </g>
    </g>
</svg>