<?xml version="1.0" encoding="UTF-8"?>
<svg width="100px" height="100px" viewBox="0 0 100 100" version="1.1" xmlns="http://www.w3.org/2000/svg" xmlns:xlink="http://www.w3.org/1999/xlink">
    <!-- Generator: Sketch 52.3 (67297) - http://www.bohemiancoding.com/sketch -->
    <title>calculate-money</title>
    <desc>Created with Sketch.</desc>
    <g id="Page-1" stroke="none" stroke-width="1" fill="none" fill-rule="evenodd">
        <g id="Desktop-HD-Copy" transform="translate(-97.000000, -21.000000)" fill="#00C851">
            <g id="calculate-money" transform="translate(97.000000, 21.000000)">
                <path d="M46.7741935,22.5806452 C45.8854839,22.5806452 45.1612903,21.8564516 45.1612903,20.9677419 C45.1612903,20.0790323 45.8854839,19.3548387 46.7741935,19.3548387 C47.6629032,19.3548387 48.3870968,20.0790323 48.3870968,20.9677419 L51.6129032,20.9677419 C51.6129032,18.8677419 50.2596774,17.0935484 48.3870968,16.4258065 L48.3870968,12.9032258 L45.1612903,12.9032258 L45.1612903,16.4258065 C43.2887097,17.0935484 41.9354839,18.8677419 41.9354839,20.9677419 C41.9354839,23.6354839 44.1064516,25.8064516 46.7741935,25.8064516 C47.6629032,25.8064516 48.3870968,26.5306452 48.3870968,27.4193548 C48.3870968,28.3080645 47.6629032,29.0322581 46.7741935,29.0322581 C45.8854839,29.0322581 45.1612903,28.3080645 45.1612903,27.4193548 L41.9354839,27.4193548 C41.9354839,29.5193548 43.2887097,31.2935484 45.1612903,31.9612903 L45.1612903,35.483871 L48.3870968,35.483871 L48.3870968,31.9612903 C50.2596774,31.2935484 51.6129032,29.5193548 51.6129032,27.4193548 C51.6129032,24.7516129 49.4419355,22.5806452 46.7741935,22.5806452 Z" id="Path"></path>
                <polygon id="Path" points="6.4516129 6.4516129 6.4516129 16.1290323 9.67741935 16.1290323 9.67741935 9.67741935 16.1290323 9.67741935 16.1290323 6.4516129"></polygon>
                <polygon id="Path" points="9.67741935 38.7096774 9.67741935 32.2580645 6.4516129 32.2580645 6.4516129 41.9354839 16.1290323 41.9354839 16.1290323 38.7096774"></polygon>
                <polygon id="Path" points="77.4193548 6.4516129 77.4193548 9.67741935 83.8709677 9.67741935 83.8709677 16.1290323 87.0967742 16.1290323 87.0967742 6.4516129"></polygon>
                <path d="M93.5483871,32.4209677 L93.5483871,0 L0,0 L0,48.3870968 L51.6129032,48.3870968 L51.6129032,91.9354839 C51.6129032,96.3822581 55.2306452,100 59.6774194,100 L91.9354839,100 C96.3822581,100 100,96.3822581 100,91.9354839 L100,40.3225806 C100,36.4290323 97.2241935,33.1709677 93.5483871,32.4209677 Z M51.6129032,45.1612903 L3.22580645,45.1612903 L3.22580645,3.22580645 L90.3225806,3.22580645 L90.3225806,32.2580645 L62.5612903,32.2580645 C63.8435484,29.7709677 64.516129,27.0322581 64.516129,24.1935484 C64.516129,14.4112903 56.5564516,6.4516129 46.7741935,6.4516129 C36.9919355,6.4516129 29.0322581,14.4112903 29.0322581,24.1935484 C29.0322581,33.9758065 36.9919355,41.9354839 46.7741935,41.9354839 C48.4241935,41.9354839 50.0403226,41.6854839 51.6129032,41.233871 L51.6129032,45.1612903 Z M52.0983871,37.6677419 C50.3903226,38.3467742 48.6048387,38.7096774 46.7741935,38.7096774 C38.7709677,38.7096774 32.2580645,32.1967742 32.2580645,24.1935484 C32.2580645,16.1903226 38.7709677,9.67741935 46.7741935,9.67741935 C54.7774194,9.67741935 61.2903226,16.1903226 61.2903226,24.1935484 C61.2903226,27.1258065 60.4064516,29.9290323 58.7467742,32.3516129 C55.65,32.7145161 53.1016129,34.8129032 52.0983871,37.6677419 Z M96.7741935,91.9354839 C96.7741935,94.6032258 94.6032258,96.7741935 91.9354839,96.7741935 L59.6774194,96.7741935 C57.0096774,96.7741935 54.8387097,94.6032258 54.8387097,91.9354839 L54.8387097,40.3225806 C54.8387097,37.6548387 57.0096774,35.483871 59.6774194,35.483871 L91.9354839,35.483871 C94.6032258,35.483871 96.7741935,37.6548387 96.7741935,40.3225806 L96.7741935,91.9354839 Z" id="Shape" fill-rule="nonzero"></path>
                <path d="M83.8709677,70.9677419 L83.8709677,93.5483871 L93.5483871,93.5483871 L93.5483871,70.9677419 L83.8709677,70.9677419 Z M90.3225806,90.3225806 L87.0967742,90.3225806 L87.0967742,74.1935484 L90.3225806,74.1935484 L90.3225806,90.3225806 Z" id="Shape" fill-rule="nonzero"></path>
                <path d="M70.9677419,83.8709677 L70.9677419,93.5483871 L80.6451613,93.5483871 L80.6451613,83.8709677 L70.9677419,83.8709677 Z M77.4193548,90.3225806 L74.1935484,90.3225806 L74.1935484,87.0967742 L77.4193548,87.0967742 L77.4193548,90.3225806 Z" id="Shape" fill-rule="nonzero"></path>
                <path d="M58.0645161,83.8709677 L58.0645161,93.5483871 L67.7419355,93.5483871 L67.7419355,83.8709677 L58.0645161,83.8709677 Z M64.516129,90.3225806 L61.2903226,90.3225806 L61.2903226,87.0967742 L64.516129,87.0967742 L64.516129,90.3225806 Z" id="Shape" fill-rule="nonzero"></path>
                <path d="M70.9677419,70.9677419 L70.9677419,80.6451613 L80.6451613,80.6451613 L80.6451613,70.9677419 L70.9677419,70.9677419 Z M77.4193548,77.4193548 L74.1935484,77.4193548 L74.1935484,74.1935484 L77.4193548,74.1935484 L77.4193548,77.4193548 Z" id="Shape" fill-rule="nonzero"></path>
                <path d="M58.0645161,70.9677419 L58.0645161,80.6451613 L67.7419355,80.6451613 L67.7419355,70.9677419 L58.0645161,70.9677419 Z M64.516129,77.4193548 L61.2903226,77.4193548 L61.2903226,74.1935484 L64.516129,74.1935484 L64.516129,77.4193548 Z" id="Shape" fill-rule="nonzero"></path>
                <path d="M70.9677419,58.0645161 L70.9677419,67.7419355 L80.6451613,67.7419355 L80.6451613,58.0645161 L70.9677419,58.0645161 Z M77.4193548,64.516129 L74.1935484,64.516129 L74.1935484,61.2903226 L77.4193548,61.2903226 L77.4193548,64.516129 Z" id="Shape" fill-rule="nonzero"></path>
                <path d="M83.8709677,58.0645161 L83.8709677,67.7419355 L93.5483871,67.7419355 L93.5483871,58.0645161 L83.8709677,58.0645161 Z M90.3225806,64.516129 L87.0967742,64.516129 L87.0967742,61.2903226 L90.3225806,61.2903226 L90.3225806,64.516129 Z" id="Shape" fill-rule="nonzero"></path>
                <path d="M58.0645161,58.0645161 L58.0645161,67.7419355 L67.7419355,67.7419355 L67.7419355,58.0645161 L58.0645161,58.0645161 Z M64.516129,64.516129 L61.2903226,64.516129 L61.2903226,61.2903226 L64.516129,61.2903226 L64.516129,64.516129 Z" id="Shape" fill-rule="nonzero"></path>
                <path d="M58.0645161,38.7096774 L58.0645161,54.8387097 L93.5483871,54.8387097 L93.5483871,38.7096774 L58.0645161,38.7096774 Z M90.3225806,51.6129032 L61.2903226,51.6129032 L61.2903226,41.9354839 L90.3225806,41.9354839 L90.3225806,51.6129032 Z" id="Shape" fill-rule="nonzero"></path>
                <path d="M40.3225806,54.8387097 C37.6548387,54.8387097 35.483871,57.0096774 35.483871,59.6774194 C35.483871,59.7419355 35.5,59.8032258 35.5032258,59.8677419 L27.8096774,62.9451613 C26.9225806,61.9387097 25.6387097,61.2903226 24.1935484,61.2903226 C23.0274194,61.2903226 21.9693548,61.7225806 21.133871,62.4112903 L12.8064516,57.416129 C12.8693548,57.1032258 12.9032258,56.7822581 12.9032258,56.4516129 C12.9032258,53.783871 10.7322581,51.6129032 8.06451613,51.6129032 C5.39677419,51.6129032 3.22580645,53.783871 3.22580645,56.4516129 C3.22580645,59.1193548 5.39677419,61.2903226 8.06451613,61.2903226 C9.23064516,61.2903226 10.2887097,60.8580645 11.1241935,60.1693548 L19.4516129,65.166129 C19.3887097,65.4774194 19.3548387,65.7983871 19.3548387,66.1290323 C19.3548387,68.7967742 21.5258065,70.9677419 24.1935484,70.9677419 C26.8612903,70.9677419 29.0322581,68.7967742 29.0322581,66.1290323 C29.0322581,66.0645161 29.016129,66.0032258 29.0129032,65.9387097 L36.7064516,62.8612903 C37.5935484,63.8677419 38.8774194,64.516129 40.3225806,64.516129 C42.9903226,64.516129 45.1612903,62.3451613 45.1612903,59.6774194 C45.1612903,57.0096774 42.9903226,54.8387097 40.3225806,54.8387097 Z M8.06451613,58.0645161 C7.17580645,58.0645161 6.4516129,57.3403226 6.4516129,56.4516129 C6.4516129,55.5629032 7.17580645,54.8387097 8.06451613,54.8387097 C8.95322581,54.8387097 9.67741935,55.5629032 9.67741935,56.4516129 C9.67741935,57.3403226 8.95322581,58.0645161 8.06451613,58.0645161 Z M24.1935484,67.7419355 C23.3048387,67.7419355 22.5806452,67.0177419 22.5806452,66.1290323 C22.5806452,65.2403226 23.3048387,64.516129 24.1935484,64.516129 C25.0822581,64.516129 25.8064516,65.2403226 25.8064516,66.1290323 C25.8064516,67.0177419 25.0822581,67.7419355 24.1935484,67.7419355 Z M40.3225806,61.2903226 C39.433871,61.2903226 38.7096774,60.566129 38.7096774,59.6774194 C38.7096774,58.7887097 39.433871,58.0645161 40.3225806,58.0645161 C41.2112903,58.0645161 41.9354839,58.7887097 41.9354839,59.6774194 C41.9354839,60.566129 41.2112903,61.2903226 40.3225806,61.2903226 Z" id="Shape" fill-rule="nonzero"></path>
                <path d="M45.1612903,96.7741935 L45.1612903,67.7419355 L35.483871,67.7419355 L35.483871,96.7741935 L29.0322581,96.7741935 L29.0322581,74.1935484 L19.3548387,74.1935484 L19.3548387,96.7741935 L12.9032258,96.7741935 L12.9032258,64.516129 L3.22580645,64.516129 L3.22580645,96.7741935 L0,96.7741935 L0,100 L48.3870968,100 L48.3870968,96.7741935 L45.1612903,96.7741935 Z M9.67741935,96.7741935 L6.4516129,96.7741935 L6.4516129,67.7419355 L9.67741935,67.7419355 L9.67741935,96.7741935 Z M25.8064516,96.7741935 L22.5806452,96.7741935 L22.5806452,77.4193548 L25.8064516,77.4193548 L25.8064516,96.7741935 Z M41.9354839,96.7741935 L38.7096774,96.7741935 L38.7096774,70.9677419 L41.9354839,70.9677419 L41.9354839,96.7741935 Z" id="Shape" fill-rule="nonzero"></path>
                <rect id="Rectangle" x="54.8387097" y="22.5806452" width="3.22580645" height="3.22580645"></rect>
                <rect id="Rectangle" x="35.483871" y="22.5806452" width="3.22580645" height="3.22580645"></rect>
            </g>
        </g>
    </g>
</svg>