<?xml version="1.0" encoding="UTF-8"?>
<svg width="550px" height="300px" viewBox="0 0 550 300" version="1.1" xmlns="http://www.w3.org/2000/svg" xmlns:xlink="http://www.w3.org/1999/xlink">
    <!-- Generator: Sketch 52.3 (67297) - http://www.bohemiancoding.com/sketch -->
    <title>income</title>
    <desc>Created with Sketch.</desc>
    <g id="Page-1" stroke="none" stroke-width="1" fill="none" fill-rule="evenodd">
        <g id="Desktop-HD" transform="translate(-412.000000, -512.000000)">
            <g id="income" transform="translate(412.000000, 512.000000)">
                <rect id="Rectangle" fill="#00C851" fill-rule="nonzero" x="0" y="0" width="550" height="300"></rect>
                <circle id="Oval" fill="#FFFFFF" fill-rule="nonzero" cx="275" cy="150" r="30"></circle>
                <g id="flaticon1542649676-svg" transform="translate(258.000000, 133.000000)" fill="#00C851">
                    <path d="M32.7410976,15.2792683 L19.6446341,15.2792683 L19.6446341,2.18280488 C19.6446341,0.977317073 18.667439,0.00012195122 17.4619512,0.00012195122 C16.2564634,0.00012195122 15.2792683,0.977317073 15.2792683,2.18280488 L15.2792683,15.2791463 L2.18292683,15.2791463 C0.977439024,15.2791463 0,16.2563415 0,17.4618293 C0,18.6673171 0.977439024,19.6445122 2.18292683,19.6445122 L15.2792683,19.6445122 L15.2792683,32.7408537 C15.2792683,33.9463415 16.2564634,34.9235366 17.4619512,34.9235366 C18.667439,34.9235366 19.6446341,33.9463415 19.6446341,32.7408537 L19.6446341,19.6445122 L32.7410976,19.6445122 C33.9465854,19.6445122 34.9237805,18.6671951 34.9237805,17.4618293 C34.9239024,16.2564634 33.9465854,15.2792683 32.7410976,15.2792683 Z" id="Path"></path>
                </g>
            </g>
        </g>
    </g>
</svg>