<?xml version="1.0" encoding="UTF-8"?>
<svg width="100px" height="102px" viewBox="0 0 100 102" version="1.1" xmlns="http://www.w3.org/2000/svg" xmlns:xlink="http://www.w3.org/1999/xlink">
    <!-- Generator: Sketch 52.3 (67297) - http://www.bohemiancoding.com/sketch -->
    <title>visulise-money</title>
    <desc>Created with Sketch.</desc>
    <g id="Page-1" stroke="none" stroke-width="1" fill="none" fill-rule="evenodd">
        <g id="Desktop-HD-Copy" transform="translate(-428.000000, -20.000000)" fill="#00C851">
            <g id="visulise-money" transform="translate(428.000000, 20.000000)">
                <path d="M42.5523909,3.67068607 L44.3486486,6.47151767 C50.9185031,2.35592516 59.2623701,2.35592516 65.8322245,6.47151767 L67.6284823,3.67068607 C59.9862786,-1.22349272 50.1945946,-1.22349272 42.5523909,3.67068607 Z" id="Path"></path>
                <path d="M35.1345114,23.2831601 L31.8080802,23.2831601 C31.8033264,26.3602911 32.4128898,29.4074844 33.6010395,32.2461538 L36.6713098,30.9621622 C35.6525988,28.5305613 35.1301455,25.9197505 35.1345114,23.2831601 Z" id="Path"></path>
                <path d="M62.7636175,41.7064449 C60.3347193,42.7247401 57.7266112,43.2465696 55.0929314,43.24158 L55.0929314,46.5680247 C58.1683992,46.5738046 61.2141372,45.9648649 64.0509356,44.7767152 L62.7636175,41.7064449 Z" id="Path"></path>
                <path d="M75.0513514,23.2831601 C75.0559252,25.9178794 74.5338877,28.527027 73.5162162,30.9571726 L76.5864865,32.2411642 C77.7744283,29.4043659 78.383368,26.3586279 78.3777931,23.2831601 L75.0513514,23.2831601 Z" id="Path"></path>
                <path d="M55.0929314,6.65114345 C45.9072765,6.65114345 38.4609148,14.0975052 38.4609148,23.2831601 C38.4609148,32.468815 45.9072765,39.9151767 55.0929314,39.9151767 C64.2744283,39.9049896 71.7149688,32.464657 71.724948,23.2831601 C71.724948,14.0977131 64.2785863,6.65114345 55.0929314,6.65114345 Z M55.0929314,36.5887734 C47.7444906,36.5887734 41.7873181,30.6316008 41.7873181,23.2831601 C41.7873181,15.9347193 47.7444906,9.97754678 55.0929314,9.97754678 C62.4413721,9.97754678 68.3985447,15.9347193 68.3985447,23.2831601 C68.3902287,30.6282744 62.4380457,36.5806653 55.0929314,36.5887734 Z" id="Shape" fill-rule="nonzero"></path>
                <path d="M58.7519751,22.7525988 L56.7561331,22.0873181 L56.7561331,17.8195426 C57.6825364,18.1428274 58.3334719,18.97921 58.4193347,19.9567568 L61.745738,19.9567568 C61.5970894,17.149896 59.5261954,14.8193347 56.7561331,14.3417879 L56.7561331,13.3039501 L53.4297297,13.3039501 L53.4297297,14.3417879 C50.6596674,14.8193347 48.5887734,17.149896 48.4401247,19.9567568 C48.5054054,21.752183 49.7108108,23.3051975 51.4338877,23.8137214 L53.4297297,24.4790021 L53.4297297,28.7434511 C52.5043659,28.4205821 51.8536383,27.5858628 51.7665281,26.6095634 L48.4401247,26.6095634 C48.5887734,29.4164241 50.6596674,31.7469854 53.4297297,32.2245322 L53.4297297,33.2623701 L56.7561331,33.2623701 L56.7561331,32.2245322 C59.5261954,31.7469854 61.5970894,29.4164241 61.745738,26.6095634 C61.6804574,24.8141372 60.475052,23.2613306 58.7519751,22.7525988 Z M53.4297297,20.9796258 L52.4817048,20.6602911 C52.0609148,20.5189189 51.7665281,20.2295218 51.7665281,19.9567568 C51.8523909,18.97921 52.5033264,18.1428274 53.4297297,17.8195426 L53.4297297,20.9796258 Z M56.7561331,28.7467775 L56.7561331,25.5866944 L57.704158,25.9060291 C58.124948,26.0474012 58.4193347,26.3367983 58.4193347,26.6095634 C58.3334719,27.5871102 57.6825364,28.4234927 56.7561331,28.7467775 Z" id="Shape" fill-rule="nonzero"></path>
                <path d="M99.5120582,68.6769231 L94.0351351,63.2 L99.5120582,57.7230769 C100.161331,57.0735967 100.161331,56.02079 99.5120582,55.3713098 L77.8904366,33.7496881 C77.2409563,33.1004158 76.1881497,33.1004158 75.5386694,33.7496881 L54.2613306,55.027027 L31.32079,32.0864865 C30.6713098,31.4372141 29.6185031,31.4372141 28.9690229,32.0864865 L7.34740125,53.7081081 C6.6981289,54.3575884 6.6981289,55.410395 7.34740125,56.0598753 L19.477131,68.189605 L0.207276507,68.189605 L0.207276507,71.5160083 L21.8288981,71.5160083 C22.054262,71.516632 22.2773389,71.4706861 22.4841996,71.381289 L33.8122661,66.5264033 L58.4193347,66.5264033 L58.4193347,73.17921 L40.1241164,73.17921 C39.2056133,73.17921 38.4609148,73.9237006 38.4609148,74.8424116 C38.4609148,75.4912682 38.8382536,76.0808732 39.4272349,76.3525988 L61.0488565,86.3318087 C61.5929314,86.57921 62.2278586,86.5158004 62.7120582,86.1654886 L91.5170478,65.3787942 L95.8962578,69.7580042 L62.7935551,98.1272349 L53.7274428,98.1272349 L22.4043659,86.5879418 C22.2201663,86.5199584 22.0253638,86.4850312 21.8288981,86.4848233 L0.207276507,86.4848233 L0.207276507,89.8112266 L21.531185,89.8112266 L52.854262,101.35052 C53.0384615,101.418711 53.233264,101.45343 53.4297297,101.453638 L63.4089397,101.453638 C63.8058212,101.454054 64.1893971,101.31185 64.4900208,101.052807 L99.4172557,71.1151767 C100.114761,70.5174636 100.195842,69.4675676 99.5981289,68.7700624 C99.5706861,68.7380457 99.5419958,68.7068607 99.5120582,68.6769231 Z M33.4713098,63.2 C33.2459459,63.1993763 33.022869,63.2451143 32.8160083,63.3347193 L32.4118503,63.5010395 C34.0540541,59.239501 38.8401247,57.1160083 43.1016632,58.7582121 C45.1760915,59.5575884 46.8411642,61.1586279 47.7216216,63.2 L33.4713098,63.2 Z M51.2758836,63.2 C49.8197505,58.2577963 45.2762994,54.8698545 40.1241164,54.8839917 C34.2384615,54.9193347 29.2925156,59.3151767 28.5665281,65.1559252 L23.3723493,67.381289 L10.875052,54.8839917 L30.1449064,35.6141372 L57.7307692,63.2 L51.2758836,63.2 Z M61.5611227,82.9039501 L47.6966736,76.5056133 L60.0825364,76.5056133 C61.0010395,76.5056133 61.745738,75.7609148 61.745738,74.8424116 L61.745738,67.2149688 L70.7769231,76.2461538 L61.5611227,82.9039501 Z M61.902079,62.6677755 C62.5320166,59.1174636 65.6243243,56.5345114 69.2301455,56.5471933 C73.3544699,56.5397089 76.7039501,59.8769231 76.7116424,64.0012474 C76.7182952,67.6099792 74.1432432,70.7070686 70.5939709,71.3596674 L61.902079,62.6677755 Z M73.2933472,74.0557173 C73.9607069,73.7850312 74.5985447,73.4474012 75.1987526,73.0496881 L73.5079002,74.2702703 L73.2933472,74.0557173 Z M90.6039501,61.9276507 L75.947817,72.5139293 C80.6170478,68.7929314 81.3858628,61.9910603 77.664657,57.3218295 C73.943659,52.6525988 67.1417879,51.8837838 62.4725572,55.6049896 C61.0274428,56.7565489 59.9016632,58.2594595 59.2024948,59.9700624 L56.6128898,57.3787942 L76.7143451,37.2773389 L95.9841996,56.5471933 L90.6039501,61.9276507 Z" id="Shape" fill-rule="nonzero"></path>
            </g>
        </g>
    </g>
</svg>